<?xml version="1.0" standalone="no"?>
<!DOCTYPE svg PUBLIC "-//W3C//DTD SVG 20010904//EN"
 "http://www.w3.org/TR/2001/REC-SVG-20010904/DTD/svg10.dtd">
<svg version="1.0" xmlns="http://www.w3.org/2000/svg"
 width="500.000000pt" height="500.000000pt" viewBox="0 0 500.000000 500.000000"
 preserveAspectRatio="xMidYMid meet">

<g transform="translate(0.000000,500.000000) scale(0.100000,-0.100000)"
fill="#000000" stroke="none">
<path d="M2290 4489 c-430 -44 -845 -237 -1164 -539 -636 -604 -806 -1541
-421 -2326 238 -486 658 -853 1170 -1022 698 -231 1465 -59 1999 448 180 171
313 353 422 575 271 556 271 1195 0 1750 -370 757 -1167 1200 -2006 1114z
m520 -34 c343 -57 646 -189 915 -400 92 -72 250 -230 326 -325 205 -256 346
-577 406 -925 26 -151 23 -481 -5 -635 -58 -315 -179 -601 -359 -845 -82 -111
-300 -330 -408 -411 -693 -514 -1633 -524 -2335 -24 -431 307 -718 772 -806
1306 -25 147 -25 466 -1 609 80 468 291 854 642 1173 297 271 687 443 1111
492 110 12 400 4 514 -15z"/>
<path d="M2570 4278 c-62 -32 -85 -75 -85 -160 0 -72 14 -102 69 -142 41 -31
159 -35 204 -6 69 43 96 181 49 250 -49 74 -156 100 -237 58z m122 -48 c46
-13 58 -34 58 -100 0 -55 -19 -104 -45 -114 -51 -19 -128 7 -139 46 -18 70 3
144 48 164 38 16 33 16 78 4z"/>
<path d="M2200 4278 c-41 -6 -76 -11 -78 -13 -5 -4 38 -318 44 -324 2 -3 50 1
107 7 110 13 145 29 161 76 14 37 -3 78 -40 96 l-31 16 24 17 c34 26 32 88 -3
116 -29 23 -61 25 -184 9z m130 -67 c11 -22 5 -47 -14 -54 -8 -3 -34 -9 -60
-12 -41 -6 -46 -5 -46 11 0 11 -3 29 -6 41 -5 19 -1 22 28 26 73 9 87 7 98
-12z m14 -127 c35 -34 13 -64 -55 -75 -29 -5 -54 -7 -56 -6 -1 2 -5 21 -9 44
-6 41 -6 42 27 46 67 8 78 7 93 -9z"/>
<path d="M2960 4187 c-87 -58 -112 -196 -48 -264 53 -58 162 -82 226 -49 77
40 116 169 74 246 -43 78 -182 115 -252 67z m144 -54 c46 -21 61 -58 46 -111
-16 -60 -54 -102 -93 -102 -43 0 -95 33 -103 66 -15 59 46 164 95 164 11 0 36
-7 55 -17z"/>
<path d="M1765 4149 c-60 -28 -111 -51 -113 -54 -4 -4 116 -286 126 -297 6 -5
227 84 240 97 3 3 -14 42 -23 53 -1 1 -37 -14 -79 -33 -42 -19 -81 -35 -85
-35 -9 0 -31 45 -31 65 0 8 4 15 9 15 5 0 39 13 76 30 63 28 65 31 54 52 -6
13 -13 24 -14 26 -1 1 -32 -11 -68 -28 -37 -16 -72 -30 -80 -30 -7 0 -18 14
-24 31 -13 33 -15 31 120 86 20 8 37 17 37 19 0 10 -24 54 -29 53 -3 -1 -55
-23 -116 -50z"/>
<path d="M3294 3978 c-37 -56 -77 -118 -89 -138 l-23 -37 30 -18 31 -18 26 32
c24 29 83 56 95 43 3 -3 6 -40 6 -83 0 -77 0 -77 34 -98 18 -12 36 -21 39 -21
3 0 3 51 0 114 l-6 114 39 11 c21 5 60 15 87 22 26 6 47 15 47 19 0 5 -16 18
-35 30 l-36 22 -85 -27 c-47 -14 -90 -25 -95 -23 -5 2 7 26 26 55 19 29 35 56
35 61 0 9 -43 42 -55 42 -3 0 -35 -46 -71 -102z"/>
<path d="M1417 3952 c-15 -9 -26 -21 -25 -27 2 -5 43 -69 92 -142 l88 -132 94
62 c51 34 93 67 93 72 0 6 -6 18 -14 28 -13 18 -17 17 -74 -22 -33 -23 -64
-41 -68 -41 -4 0 -39 48 -77 106 -38 57 -72 107 -75 109 -4 2 -19 -4 -34 -13z"/>
<path d="M3665 3840 c-18 -20 -18 -21 3 -42 l21 -21 -61 -70 c-34 -38 -68 -71
-75 -74 -8 -3 -23 3 -34 13 -19 17 -20 17 -41 -4 l-22 -21 69 -63 c72 -66 91
-74 108 -46 9 13 7 22 -7 37 -18 20 -18 21 22 68 22 26 54 61 71 77 l31 30 23
-22 24 -22 18 20 c19 20 18 22 -50 90 -38 39 -72 70 -76 70 -3 0 -14 -9 -24
-20z"/>
<path d="M1254 3811 c-21 -16 -64 -54 -94 -85 l-54 -56 114 -115 c63 -63 120
-115 126 -115 6 0 46 36 88 80 68 72 76 84 76 119 0 51 -47 96 -92 87 -27 -5
-28 -4 -28 34 0 30 -6 43 -26 59 -36 28 -64 26 -110 -8z m70 -67 c23 -22 21
-30 -23 -77 l-39 -42 -26 24 c-14 14 -26 28 -26 33 0 12 73 77 87 78 6 0 19
-7 27 -16z m102 -100 c17 -25 16 -26 -27 -70 l-43 -44 -31 30 -30 31 42 39
c49 47 66 49 89 14z"/>
<path d="M2285 3765 c-453 -72 -852 -414 -999 -855 -86 -257 -90 -538 -10
-792 121 -385 417 -693 794 -826 162 -57 228 -67 430 -67 202 0 268 10 430 67
233 82 442 237 593 437 124 164 207 355 242 555 19 114 19 316 -1 431 -83 481
-428 870 -899 1014 -55 16 -135 35 -178 41 -104 13 -302 11 -402 -5z m405 -20
c304 -52 575 -201 761 -420 294 -345 384 -794 244 -1221 -61 -187 -155 -342
-292 -481 -186 -188 -398 -303 -663 -359 -117 -25 -362 -25 -480 -1 -290 62
-537 206 -719 421 -488 576 -369 1439 256 1859 95 64 133 83 258 134 188 75
437 102 635 68z"/>
<path d="M2329 3378 c-124 -135 -130 -144 -24 -38 l70 70 68 -66 c37 -36 67
-67 67 -69 0 -5 -140 -105 -147 -105 -4 0 -30 21 -58 48 l-50 47 49 -52 50
-52 -29 -23 c-16 -13 -49 -40 -73 -60 -24 -21 -47 -38 -51 -38 -4 0 -27 20
-51 45 l-44 45 49 53 c27 28 -9 -4 -80 -74 -224 -216 -295 -280 -305 -274 -6
4 -10 -6 -10 -21 0 -27 1 -27 15 -8 14 18 16 17 59 -27 43 -45 45 -48 33 -79
-13 -35 -146 -195 -154 -186 -3 3 10 29 28 58 31 48 34 60 36 133 l1 80 -7
-80 c-6 -65 -12 -88 -36 -124 -22 -33 -31 -60 -35 -104 -6 -74 -30 -92 -30
-23 0 31 -9 64 -30 103 -16 32 -30 51 -30 44 0 -12 -3 -12 -12 -3 -10 10 -10
15 1 21 7 5 12 13 10 19 -2 5 -29 -20 -60 -57 l-56 -68 89 -84 c84 -80 88 -83
88 -56 0 16 5 27 10 25 6 -2 13 -67 16 -163 2 -87 7 -161 9 -164 3 -2 5 47 5
110 l0 114 53 -55 c28 -31 108 -122 176 -203 68 -80 182 -204 255 -274 131
-127 231 -209 220 -179 -3 9 -11 16 -17 16 -25 0 -307 262 -307 286 0 6 21 31
48 55 l47 44 -55 27 c-114 56 -214 171 -257 296 -12 37 -23 58 -23 47 0 -12
-18 -38 -40 -60 l-40 -39 -30 29 c-29 27 -30 33 -30 112 0 46 3 83 6 83 8 0
95 -61 116 -82 17 -17 18 -16 16 70 l-2 87 -5 -73 -6 -73 -55 41 c-30 23 -55
45 -55 49 0 9 103 121 111 121 2 0 5 -12 5 -27 1 -19 4 -12 9 18 4 25 23 81
41 125 27 66 44 91 104 149 78 78 195 149 290 177 50 15 53 17 20 14 l-40 -5
45 39 c25 22 48 40 51 40 3 0 18 -13 34 -30 l29 -30 -40 -1 c-30 -1 134 -26
181 -28 29 -1 -28 18 -72 24 -51 7 -120 52 -112 73 4 10 122 100 138 105 7 2
151 -128 151 -137 0 -2 -20 -19 -44 -38 l-44 -34 51 -18 c97 -35 188 -116 266
-236 60 -92 83 -161 88 -266 6 -106 -9 -170 -65 -279 -44 -84 -146 -191 -217
-228 -71 -35 -233 -70 -336 -71 l-86 0 44 -29 c23 -16 46 -33 49 -39 4 -6 -24
-41 -62 -79 -38 -38 -64 -69 -59 -69 5 0 40 30 77 67 l67 67 71 -49 c38 -26
70 -50 70 -53 0 -2 -25 -31 -55 -64 -30 -32 -60 -69 -66 -81 -6 -12 2 -6 17
13 103 127 118 135 179 85 l30 -25 -85 -81 c-50 -47 -66 -67 -40 -47 24 18
154 142 287 276 l242 242 4 -47 c3 -42 4 -40 5 17 l2 65 -46 -46 -46 -46 -41
44 -41 44 76 76 c43 43 81 73 87 69 6 -4 12 -35 13 -69 l1 -62 7 65 c11 93 11
160 0 135 -16 -40 -33 -45 -64 -20 l-29 23 13 64 c25 120 41 127 65 28 10 -39
22 -70 29 -69 33 4 36 -2 36 -73 0 -40 5 -138 11 -218 17 -218 16 -230 -10
-252 -28 -22 -35 -22 -55 -2 -11 10 -17 37 -18 82 -2 67 -2 67 -5 13 -5 -69 2
-98 27 -111 27 -14 66 6 81 42 9 22 9 63 -1 184 l-12 156 78 79 c43 43 82 79
86 79 4 0 9 -26 11 -57 3 -52 3 -50 5 20 1 43 6 77 12 77 6 0 10 -55 10 -144
0 -87 6 -176 15 -223 17 -91 19 -166 5 -194 -14 -26 -45 -24 -64 3 -9 12 -16
17 -16 11 0 -18 29 -43 50 -43 52 0 68 65 45 181 -9 46 -19 157 -22 247 l-6
163 54 55 53 54 -33 34 -32 33 33 48 c30 43 33 53 32 118 -2 155 -103 270
-171 195 -22 -25 -43 -62 -43 -75 1 -4 8 6 17 22 40 77 82 86 131 30 34 -37
50 -82 59 -160 6 -58 -9 -100 -58 -156 -25 -30 -33 -51 -41 -113 -11 -78 -28
-94 -28 -26 0 50 -13 83 -58 148 -29 42 -37 64 -40 112 -2 32 1 73 7 91 6 18
9 34 6 37 -2 3 -10 -16 -17 -42 -7 -25 -15 -46 -18 -46 -4 0 -19 14 -35 30
-30 31 -48 39 -39 17 2 -7 14 -17 26 -22 12 -6 31 -22 42 -38 l20 -27 -22 -22
-22 -22 -25 24 c-14 13 -25 18 -25 12 0 -6 9 -20 21 -31 l21 -19 -21 -12 c-12
-6 -19 -16 -15 -22 4 -7 10 -5 16 6 15 26 30 19 82 -40 l49 -56 -41 -41 -42
-41 -30 29 c-16 16 -30 23 -30 16 0 -7 10 -21 23 -32 l22 -19 -30 -25 c-50
-42 -67 -31 -88 55 -20 77 -29 327 -16 435 3 28 4 42 2 33 -3 -10 -8 -18 -12
-18 -9 0 -363 360 -479 488 -52 56 -97 102 -101 102 -5 0 -59 -55 -122 -122z
m209 20 c38 -40 42 -49 31 -66 -7 -10 -21 -24 -31 -31 -18 -11 -27 -5 -81 45
-34 32 -66 61 -71 66 -6 5 4 22 24 43 l33 34 26 -22 c15 -12 46 -43 69 -69z
m126 -137 c63 -63 67 -70 55 -89 -24 -39 -40 -34 -109 30 -37 35 -68 67 -69
72 -1 10 39 56 49 56 3 0 36 -31 74 -69z m102 -109 c10 -10 39 -39 63 -65 44
-46 44 -47 26 -67 -10 -11 -22 -19 -25 -18 -17 7 -130 113 -130 121 0 12 30
47 40 47 4 0 16 -8 26 -18z m-623 -77 l39 -44 -39 -20 c-21 -10 -60 -35 -87
-55 l-49 -35 -29 20 c-15 11 -28 23 -28 27 0 8 143 152 150 151 3 0 22 -20 43
-44z m610 -23 c53 -53 65 -70 55 -80 -17 -17 -23 -16 -72 22 -25 19 -61 39
-81 46 -19 6 -35 14 -35 18 0 8 52 62 60 62 3 0 36 -31 73 -68z m275 -181 c-2
-8 -11 -19 -20 -25 -15 -9 -30 1 -93 64 l-75 74 22 23 22 24 73 -73 c41 -40
72 -79 71 -87z m-120 31 c39 -38 72 -73 72 -79 0 -5 -10 -19 -23 -31 l-23 -22
-66 89 c-49 65 -63 92 -55 100 6 6 13 11 17 11 3 0 38 -31 78 -68z m-939 34
l23 -24 -39 -50 c-22 -27 -45 -63 -52 -81 -8 -17 -16 -31 -20 -31 -4 0 -25 18
-46 41 l-40 40 68 65 c37 35 71 64 75 64 5 0 19 -11 31 -24z m1050 -228 c2
-108 0 -120 -14 -108 -8 7 -15 18 -15 24 0 6 -12 38 -25 71 l-25 60 38 37 c20
20 38 37 38 38 1 0 3 -55 3 -122z m245 -137 c9 -8 16 -21 16 -30 -1 -16 -51
34 -87 87 -14 20 -14 25 -2 32 10 7 19 -1 36 -34 12 -23 29 -48 37 -55z
m-1640 -21 c42 -47 45 -78 12 -109 l-25 -23 -55 48 -55 47 37 39 c20 21 40 38
43 38 4 0 23 -18 43 -40z m1401 -10 c0 -18 -6 -35 -12 -37 -9 -3 -13 8 -13 37
0 29 4 40 13 38 6 -3 12 -20 12 -38z m389 -21 l27 -22 -32 -33 c-18 -18 -36
-31 -41 -28 -9 6 -11 65 -2 88 8 21 16 20 48 -5z m-106 -103 c-2 -33 -7 -61
-13 -62 -5 -2 -30 15 -55 36 l-45 39 40 41 c37 38 40 39 57 23 15 -14 18 -29
16 -77z m-1648 -13 l0 -37 -22 22 c-23 23 -23 23 -4 38 26 19 26 19 26 -23z
m1588 -37 l32 -30 -62 -63 c-34 -35 -66 -63 -70 -63 -4 0 -8 37 -8 82 0 70 3
85 22 105 24 25 25 24 86 -31z m-1378 -80 c6 -19 28 -61 50 -94 l38 -60 -24
-23 c-28 -26 -18 -32 -102 67 -29 33 -52 64 -52 69 0 11 61 75 71 75 4 0 13
-15 19 -34z m1135 14 c19 -21 18 -22 -53 -92 -39 -40 -74 -69 -77 -66 -3 3 10
31 30 63 20 31 41 70 47 86 12 34 28 37 53 9z m65 -20 c0 -5 -4 -10 -10 -10
-5 0 -10 5 -10 10 0 6 5 10 10 10 6 0 10 -4 10 -10z m-297 -252 c-91 -91 -92
-92 -113 -73 -11 10 -20 21 -20 24 0 3 26 19 58 34 31 15 80 48 107 72 83 72
65 40 -32 -57z m-762 56 c18 -20 58 -50 87 -66 28 -16 52 -33 52 -36 0 -4 -17
-25 -37 -46 l-37 -40 -44 50 c-25 27 -60 68 -80 92 -34 41 -34 43 -17 62 25
28 36 25 76 -16z m912 -17 l35 -43 -74 -85 c-41 -46 -80 -85 -87 -87 -8 -1
-33 15 -58 37 l-44 39 74 78 c81 85 101 104 112 104 3 0 22 -19 42 -43z m-279
-112 l30 -24 -28 -40 c-16 -22 -42 -57 -60 -77 l-32 -37 -73 53 -72 53 35 36
c28 28 50 39 94 47 78 16 74 16 106 -11z m-219 -35 c-15 -16 -33 -26 -39 -23
-6 4 -22 14 -36 22 l-24 16 44 6 c88 12 87 12 55 -21z m355 -85 c0 -4 -11 -15
-87 -88 l-40 -39 -41 29 c-47 32 -50 42 -21 69 11 10 36 40 56 66 l35 48 49
-41 c27 -22 49 -42 49 -44z"/>
<path d="M3102 3014 c12 -4 18 -19 21 -57 l4 -52 -1 55 c-1 47 -4 55 -21 57
-15 1 -15 0 -3 -3z"/>
<path d="M3060 2989 c-7 -11 -10 -23 -7 -25 2 -2 9 7 15 21 14 30 7 33 -8 4z"/>
<path d="M1602 2843 c1 -65 1 -66 8 -23 6 39 7 33 8 -37 2 -66 5 -83 17 -83
12 0 15 15 15 78 0 111 19 131 22 22 2 -81 2 -82 6 -20 2 36 0 80 -3 99 -11
58 -28 19 -35 -81 l-7 -93 -1 103 c-2 83 -5 102 -17 102 -12 0 -15 -13 -13
-67z"/>
<path d="M1745 2897 c-4 -10 -5 -21 -1 -24 10 -10 18 4 13 24 -4 17 -4 17 -12
0z"/>
<path d="M1692 2818 l2 -83 4 75 5 75 11 -84 c14 -108 37 -124 34 -24 l-1 68
-6 -60 -6 -60 -8 70 c-10 84 -15 105 -28 105 -5 0 -8 -37 -7 -82z"/>
<path d="M2393 2853 c15 -2 39 -2 55 0 15 2 2 4 -28 4 -30 0 -43 -2 -27 -4z"/>
<path d="M2328 2843 c6 -2 18 -2 25 0 6 3 1 5 -13 5 -14 0 -19 -2 -12 -5z"/>
<path d="M2493 2843 c9 -2 23 -2 30 0 6 3 -1 5 -18 5 -16 0 -22 -2 -12 -5z"/>
<path d="M2548 2833 c7 -3 16 -2 19 1 4 3 -2 6 -13 5 -11 0 -14 -3 -6 -6z"/>
<path d="M2193 2783 c-50 -38 -66 -55 -84 -88 -6 -11 6 0 27 24 21 24 58 57
83 73 25 15 40 28 34 28 -6 0 -33 -17 -60 -37z"/>
<path d="M2640 2794 c17 -15 44 -50 60 -78 31 -53 41 -57 14 -5 -18 36 -83
109 -96 109 -5 0 5 -12 22 -26z"/>
<path d="M1593 2710 c0 -30 2 -43 4 -27 2 15 2 39 0 55 -2 15 -4 2 -4 -28z"/>
<path d="M1685 2710 c-3 -5 -1 -10 4 -10 6 0 11 5 11 10 0 6 -2 10 -4 10 -3 0
-8 -4 -11 -10z"/>
<path d="M2086 2655 c-9 -26 -7 -32 5 -12 6 10 9 21 6 23 -2 3 -7 -2 -11 -11z"/>
<path d="M2071 2604 c0 -11 3 -14 6 -6 3 7 2 16 -1 19 -3 4 -6 -2 -5 -13z"/>
<path d="M2062 2550 c0 -19 2 -27 5 -17 2 9 2 25 0 35 -3 9 -5 1 -5 -18z"/>
<path d="M2753 2515 c0 -33 2 -45 4 -27 2 18 2 45 0 60 -2 15 -4 0 -4 -33z"/>
<path d="M2742 2430 c0 -14 2 -19 5 -12 2 6 2 18 0 25 -3 6 -5 1 -5 -13z"/>
<path d="M2700 2326 c-30 -61 -42 -75 -90 -103 -60 -37 -61 -44 0 -13 45 23
81 66 111 134 32 74 18 62 -21 -18z"/>
<path d="M2081 2382 c-3 -40 75 -150 123 -173 12 -6 6 1 -12 16 -37 31 -84 96
-100 140 -6 17 -11 24 -11 17z"/>
<path d="M1653 2265 c0 -33 2 -45 4 -27 2 18 2 45 0 60 -2 15 -4 0 -4 -33z"/>
<path d="M3303 2185 c0 -22 2 -30 4 -17 2 12 2 30 0 40 -3 9 -5 -1 -4 -23z"/>
<path d="M1643 2135 c0 -27 2 -38 4 -22 2 15 2 37 0 50 -2 12 -4 0 -4 -28z"/>
<path d="M2285 2170 c11 -5 29 -8 40 -8 16 0 15 2 -5 8 -34 11 -60 11 -35 0z"/>
<path d="M2443 2163 c9 -2 23 -2 30 0 6 3 -1 5 -18 5 -16 0 -22 -2 -12 -5z"/>
<path d="M2378 2153 c6 -2 18 -2 25 0 6 3 1 5 -13 5 -14 0 -19 -2 -12 -5z"/>
<path d="M3292 2115 c0 -16 2 -22 5 -12 2 9 2 23 0 30 -3 6 -5 -1 -5 -18z"/>
<path d="M3283 2040 c0 -25 2 -35 4 -22 2 12 2 32 0 45 -2 12 -4 2 -4 -23z"/>
<path d="M1632 2050 c0 -14 2 -19 5 -12 2 6 2 18 0 25 -3 6 -5 1 -5 -13z"/>
<path d="M1713 2005 c0 -22 2 -30 4 -17 2 12 2 30 0 40 -3 9 -5 -1 -4 -23z"/>
<path d="M1622 1990 c0 -14 2 -19 5 -12 2 6 2 18 0 25 -3 6 -5 1 -5 -13z"/>
<path d="M3273 1915 c0 -38 2 -53 4 -32 2 20 2 52 0 70 -2 17 -4 1 -4 -38z"/>
<path d="M2238 1963 c7 -3 16 -2 19 1 4 3 -2 6 -13 5 -11 0 -14 -3 -6 -6z"/>
<path d="M1613 1895 c0 -27 2 -38 4 -22 2 15 2 37 0 50 -2 12 -4 0 -4 -28z"/>
<path d="M3865 3626 c-16 -13 -76 -56 -133 -95 l-102 -72 21 -30 20 -29 112
77 c104 72 110 75 90 43 -68 -113 -123 -210 -123 -220 0 -15 59 -100 69 -100
4 0 66 42 138 93 l131 93 -16 27 c-9 15 -21 27 -25 27 -5 0 -54 -31 -108 -70
-55 -38 -102 -70 -104 -70 -2 0 20 42 51 93 96 161 93 148 53 207 -19 27 -36
50 -39 50 -3 -1 -18 -11 -35 -24z"/>
<path d="M950 3455 l-31 -45 102 -133 c56 -72 105 -136 109 -140 4 -5 17 5 29
22 l22 30 -22 30 -22 30 36 58 c34 55 38 58 76 58 39 0 70 22 71 51 0 9 -294
85 -327 84 -7 0 -26 -20 -43 -45z m132 -46 c29 -6 57 -15 61 -19 5 -4 -4 -26
-19 -49 -15 -23 -30 -38 -34 -34 -48 59 -80 102 -80 107 0 8 12 8 72 -5z"/>
<path d="M3962 3224 c-70 -35 -96 -77 -90 -150 5 -63 29 -102 78 -125 l33 -16
-26 -7 c-24 -6 -25 -8 -15 -36 5 -17 13 -30 16 -30 4 0 42 14 84 31 l77 31
-23 61 c-51 132 -46 126 -76 107 -12 -8 -12 -15 3 -57 22 -62 22 -63 -8 -63
-31 0 -71 40 -80 79 -9 43 10 78 57 102 85 44 147 25 170 -53 10 -34 9 -42 -9
-66 -18 -24 -18 -30 -6 -60 13 -32 15 -33 36 -19 54 35 62 114 20 198 -51 100
-136 126 -241 73z"/>
<path d="M772 3098 c-27 -73 -47 -136 -43 -139 3 -4 16 -10 28 -13 18 -6 23 0
39 41 10 26 18 49 20 51 1 2 57 -17 125 -42 67 -26 126 -46 129 -46 7 0 31 62
26 67 -2 2 -56 24 -121 48 -64 24 -119 46 -123 49 -3 4 2 28 11 53 14 37 15
48 5 55 -35 22 -45 8 -96 -124z"/>
<path d="M832 2342 c-14 -45 -43 -72 -79 -72 -13 0 -23 -4 -23 -10 0 -5 7 -10
15 -10 38 0 74 -30 86 -73 9 -29 14 -36 16 -22 12 61 28 79 88 100 21 8 18 9
-27 19 -29 7 -48 33 -58 81 l-6 29 -12 -42z"/>
<path d="M4151 2363 c-1 -37 -22 -71 -50 -81 -14 -6 -35 -13 -46 -17 -17 -7
-15 -9 15 -17 49 -14 69 -35 77 -82 l6 -40 14 47 c14 47 43 77 75 77 10 0 18
5 18 10 0 6 -9 10 -19 10 -29 0 -59 31 -75 75 -10 28 -15 33 -15 18z"/>
<path d="M1476 1194 c-20 -20 -20 -20 5 -61 17 -27 19 -37 9 -48 -16 -19 -50
-2 -50 25 0 10 -4 22 -10 25 -6 3 -10 -4 -10 -18 0 -49 68 -77 90 -37 9 17 7
28 -11 56 -15 25 -18 39 -11 46 15 15 43 2 49 -22 3 -11 9 -17 14 -15 19 12
-19 65 -47 65 -7 0 -20 -7 -28 -16z"/>
<path d="M3470 1140 c0 -75 5 -80 45 -54 19 12 29 14 38 5 11 -8 14 -4 14 19
0 18 -5 29 -11 27 -6 -2 -24 13 -39 35 -16 21 -33 38 -38 38 -5 0 -9 -31 -9
-70z m45 4 c16 -24 16 -26 -2 -39 -10 -7 -18 -13 -19 -12 -1 1 -4 19 -7 40 -7
43 4 48 28 11z"/>
<path d="M1656 1024 c-21 -36 -35 -69 -31 -72 4 -4 11 0 15 8 53 87 69 120 62
124 -5 3 -25 -24 -46 -60z"/>
<path d="M3242 1058 c-15 -15 -16 -48 -2 -48 6 0 10 9 10 19 0 25 26 34 45 15
19 -19 19 -23 -1 -80 -8 -25 -14 -48 -11 -50 6 -6 87 39 87 49 0 4 -14 0 -30
-8 l-31 -16 7 50 c4 35 3 56 -6 66 -15 18 -51 20 -68 3z"/>
<path d="M1814 954 c-14 -31 -23 -64 -21 -73 3 -12 7 -8 15 12 7 15 17 39 24
55 11 26 12 24 27 -43 9 -38 21 -68 26 -66 15 5 57 110 52 129 -3 12 -7 9 -16
-13 -37 -87 -33 -86 -49 -12 -8 37 -19 67 -24 67 -5 0 -20 -25 -34 -56z"/>
<path d="M3007 952 c-27 -30 -17 -101 17 -124 37 -25 96 6 96 51 0 71 -73 118
-113 73z m77 -24 c23 -32 20 -75 -4 -88 -23 -12 -54 0 -64 26 -8 21 -8 69 1
77 14 15 53 6 67 -15z"/>
<path d="M2085 895 c-32 -31 -34 -86 -5 -115 24 -24 72 -26 90 -5 16 19 5 34
-12 17 -15 -15 -51 -15 -66 0 -17 17 -15 74 4 92 22 22 50 20 74 -6 11 -12 23
-18 27 -14 11 11 -44 56 -68 56 -11 0 -31 -11 -44 -25z"/>
<path d="M2772 894 c-12 -8 -22 -22 -22 -30 0 -21 17 -17 23 6 6 24 42 27 51
5 7 -20 -10 -64 -36 -92 -12 -13 -19 -26 -15 -29 9 -9 98 6 93 15 -3 4 -20 6
-37 3 l-32 -5 21 31 c28 38 29 88 3 102 -25 13 -22 13 -49 -6z"/>
<path d="M2340 828 c0 -29 -3 -63 -6 -74 -5 -20 -1 -22 41 -26 26 -2 49 0 51
4 3 5 -11 8 -30 8 -40 0 -47 7 -39 39 5 19 11 22 34 19 16 -3 29 -1 29 4 0 4
-13 8 -30 8 -27 0 -30 3 -30 29 0 28 2 29 35 24 23 -4 35 -2 35 6 0 6 -18 11
-45 11 l-45 0 0 -52z"/>
</g>
</svg>
